<svg width="128" height="128" viewBox="0 0 128 128" fill="none" xmlns="http://www.w3.org/2000/svg">
<g clip-path="url(#clip0_111_4128)">
<path d="M91.9998 36H71.9998L49.1698 58.145C48.7454 58.5692 48.4219 59.0834 48.2232 59.6496C48.0245 60.2158 47.9558 60.8195 48.022 61.4159C48.0883 62.0123 48.2879 62.5861 48.606 63.0949C48.9242 63.6036 49.3527 64.0343 49.8598 64.355C58.6148 69.95 70.4998 69.565 79.9998 60L99.9998 76L108 68" stroke="black" stroke-width="5" stroke-linecap="round" stroke-linejoin="round"/>
<path d="M100 76L80 96L48 88L20 68" stroke="black" stroke-width="5" stroke-linecap="round" stroke-linejoin="round"/>
<path d="M28 96L40 104L56 108" stroke="black" stroke-width="5" stroke-linecap="round" stroke-linejoin="round"/>
<path d="M36 36L64 28L92 36" stroke="black" stroke-width="5" stroke-linecap="round" stroke-linejoin="round"/>
<path d="M18.2101 31.5799L5.79014 56.4199C5.55473 56.89 5.41429 57.4018 5.37685 57.9262C5.33942 58.4506 5.40572 58.9772 5.57197 59.4759C5.73821 59.9747 6.00114 60.4358 6.34572 60.8328C6.6903 61.2299 7.10977 61.5551 7.58014 61.7899L20.0001 67.9999L36.0001 35.9999L23.5801 29.7899C23.1101 29.5545 22.5982 29.414 22.0738 29.3766C21.5494 29.3392 21.0228 29.4055 20.5241 29.5717C20.0253 29.738 19.5643 30.0009 19.1672 30.3455C18.7702 30.6901 18.4449 31.1095 18.2101 31.5799Z" stroke="black" stroke-width="5" stroke-linecap="round" stroke-linejoin="round"/>
<path d="M104.42 29.7899L92 35.9999L108 67.9999L120.42 61.7899C120.89 61.5551 121.31 61.2299 121.654 60.8328C121.999 60.4358 122.262 59.9747 122.428 59.4759C122.594 58.9772 122.661 58.4506 122.623 57.9262C122.586 57.4018 122.445 56.89 122.21 56.4199L109.79 31.5799C109.555 31.1095 109.23 30.6901 108.833 30.3455C108.436 30.0009 107.975 29.738 107.476 29.5717C106.977 29.4055 106.451 29.3392 105.926 29.3766C105.402 29.414 104.89 29.5545 104.42 29.7899Z" stroke="black" stroke-width="5" stroke-linecap="round" stroke-linejoin="round"/>
</g>
<defs>
<clipPath id="clip0_111_4128">
<rect width="128" height="128" fill="white"/>
</clipPath>
</defs>
</svg>
